# AST/ASF file generated using VICON BodyLanguage
# -----------------------------------------------
:version 1.10
:name VICON
:units
  mass 1.0
  length 0.45
  angle deg
:documentation
   .ast/.asf automatically generated from VICON data using
   VICON BodyBuilder and BodyLanguage model FoxedUp or BRILLIANT.MOD
:root
   order TX TY TZ RX RY RZ
   axis XYZ
   position 0 0 0  
   orientation 0 0 0 
:bonedata
  begin
     id 1 
     name lhipjoint
     direction 0.537252 -0.787203 0.302774 
     length 2.29576 
     axis 0 0 0  XYZ
  end
  begin
     id 2 
     name lfemur
     direction 0.34202 -0.939693 0  
     length 7.31114  
     axis 0 0 20  XYZ
    dof rx ry rz
    limits (-160.0 20.0)
           (-70.0 70.0)
           (-60.0 70.0)
  end
  begin
     id 3 
     name ltibia
     direction 0.34202 -0.939693 0   
     length 8.36008   
     axis 0 0 20   XYZ
    dof rx
    limits (-10.0 170.0)
  end
  begin
     id 4 
     name lfoot
     direction 0.0969116 -0.266263 0.959016   
     length 2.16704   
     axis -90 7.62852e-016 20   XYZ
    dof rx rz
    limits (-45.0 90.0)
           (-70.0 20.0)
  end
  begin
     id 5 
     name ltoes
     direction 1.53563e-011 -4.21779e-011 1   
     length 1.08338   
     axis -90 7.62852e-016 20   XYZ
    dof rx
    limits (-90.0 20.0)
  end
  begin
     id 6 
     name rhipjoint
     direction -0.588228 -0.754791 0.290308   
     length 2.39434  
     axis 0 0 0  XYZ 
  end
  begin
     id 7 
     name rfemur
     direction -0.34202 -0.939693 0   
     length 7.45207   
     axis 0 0 -20   XYZ
    dof rx ry rz
    limits (-160.0 20.0)
           (-70.0 70.0)
           (-70.0 60.0)
  end
  begin
     id 8 
     name rtibia
     direction -0.34202 -0.939693 0   
     length 8.03565   
     axis 0 0 -20   XYZ
    dof rx
    limits (-10.0 170.0)
 end
 begin
     id 9 
     name rfoot
     direction -0.107009 -0.294004 0.949795   
     length 2.11509  
     axis -90 -7.62852e-016 -20   XYZ
    dof rx rz
    limits (-45.0 90.0)
           (-20.0 70.0)
  end
  begin
     id 10 
     name rtoes
     direction -1.53533e-011 -4.22004e-011 1   
     length 1.05493   
     axis -90 -7.62852e-016 -20   XYZ
    dof rx
    limits (-90.0 20.0)
  end
  begin
     id 11 
     name lowerback
     direction -0.0115208 0.997969 -0.0626515   
     length 2.03153   
     axis 0 0 0   XYZ
    dof rx ry rz
    limits (-20.0 45.0)
           (-30.0 30.0)
           (-30.0 30.0)
  end
  begin
     id 12 
     name upperback
     direction -0.00423475 0.999974 -0.00583614   
     length 2.03619   
     axis 0 0 0   XYZ
    dof rx ry rz
    limits (-20.0 45.0)
           (-30.0 30.0)
           (-30.0 30.0)
  end
  begin
     id 13 
     name thorax
     direction 0.00289429 0.999728 0.0231573   
     length 2.03921   
     axis 0 0 0   XYZ
    dof rx ry rz
    limits (-20.0 45.0)
           (-30.0 30.0)
           (-30.0 30.0)
  end
  begin
     id 14 
     name lowerneck
     direction 0.0188995 0.987777 0.154721   
     length 1.78836   
     axis 0 0 0   XYZ
    dof rx ry rz
    limits (-20.0 45.0)
           (-30.0 30.0)
           (-30.0 30.0)
  end
  begin
     id 15 
     name upperneck
     direction -0.00612612 0.992995 -0.118   
     length 1.81789   
     axis 0 0 0   XYZ
    dof rx ry rz
    limits (-20.0 45.0)
           (-30.0 30.0)
           (-30.0 30.0)
  end
  begin
     id 16
     name head
     direction -0.00420226 0.998397 -0.0564482  
     length 1.82234  
     axis 0 0 0   XYZ
    dof rx ry rz
    limits (-20.0 45.0)
           (-30.0 30.0)
           (-30.0 30.0)
  end
  begin
     id 17 
     name lclavicle
     direction 0.916488 0.396539 0.0529676  
     length 3.51732  
     axis 0 0 0   XYZ
    dof ry rz
    limits (-20.0 10.0)
           (0.0 20.0)
  end
  begin
     id 18 
     name lhumerus
     direction 1 -4.4896e-011 8.36962e-028   
     length 5.45077   
     axis 180 -30 -90   XYZ
    dof rx ry rz
    limits (-60.0 90.0)
           (-90.0 90.0)
           (-90.0 90.0)
  end
  begin
     id 19
     name lradius
     direction 1 -4.48962e-011 3.01407e-027   
     length 3.05488   
     axis 180 -30 -90   XYZ
    dof rx
    limits (-10.0 170.0)
  end
  begin
     id 20
     name lwrist
     direction 1 -4.49002e-011 4.72961e-027   
     length 1.52744   
     axis -2.72261e-015 90 90   XYZ
    dof ry
    limits (-180.0 0.0)
 end
  begin
     id 21 
     name lhand
     direction 1 -4.4899e-011 9.45681e-027   
     length 0.638818   
     axis -6.0311e-015 90 90   XYZ
    dof rx rz
    limits (-90.0 90.0)
           (-45.0 45.0)
  end
  begin
     id 22 
     name lfingers
     direction 1 -4.48871e-011 1.88632e-026   
     length 0.515032   
     axis -1.20625e-014 90 90   XYZ
    dof rx
    limits (0.0 90.0)
  end
  begin
     id 23
     name lthumb
     direction 0.707107 -6.34964e-011 0.707107   
     length 0.739485   
     axis -90 45 6.32835e-014   XYZ
    dof rx rz
    limits (-45.0 45.0)
           (-45.0 45.0)
  end
  begin
     id 24 
     name rclavicle
     direction -0.949427 0.303202 0.0815894   
     length 3.76167  
     axis 0 0 0   XYZ 
    dof ry rz
    limits (-10.0 20.0)
           (-20.0 0.0)
  end
  begin
     id 25 
     name rhumerus
     direction -1 -4.48971e-011 -6.43969e-018  
     length 4.88702   
     axis 180 30 90   XYZ
    dof rx ry rz
    limits (-90.0 60.0)
           (-90.0 90.0)
           (-90.0 90.0)
  end
  begin
     id 26 
     name rradius
     direction -1 -4.48987e-011 5.46662e-027   
     length 3.22603   
     axis 180 30 90   XYZ
    dof rx
    limits (-10.0 170.0)
  end
  begin
     id 27 
     name rwrist
     direction -1 -4.48956e-011 4.72476e-027   
     length 1.61302   
     axis -2.72261e-015 -90 -90   XYZ
    dof ry
    limits (-180.0 0.0)
  end
  begin
     id 28
     name rhand
     direction -1 -4.4889e-011 9.43571e-027   
     length 0.716293   
     axis -6.0311e-015 -90 -90   XYZ
    dof rx rz
    limits (-90.0 90.0)
           (-45.0 45.0)
  end
  begin
     id 29
     name rfingers
     direction -1 -4.48887e-011 1.88701e-026   
     length 0.577494   
     axis -1.20625e-014 -90 -90   XYZ
    dof rx
    limits (0.0 90.0)
  end
  begin
     id 30
     name rthumb
     direction -0.707107 -6.34825e-011 0.707107   
     length 0.829169   
     axis -90 -45 -6.32835e-014   XYZ
    dof rx rz
    limits (-45.0 45.0)
           (-45.0 45.0)
  end
:hierarchy
  begin
    root lhipjoint rhipjoint lowerback
    lhipjoint lfemur
    lfemur ltibia
    ltibia lfoot
    lfoot ltoes
    rhipjoint rfemur
    rfemur rtibia
    rtibia rfoot
    rfoot rtoes
    lowerback upperback
    upperback thorax
    thorax lowerneck lclavicle rclavicle
    lowerneck upperneck
    upperneck head
    lclavicle lhumerus
    lhumerus lradius
    lradius lwrist
    lwrist lhand lthumb
    lhand lfingers
    rclavicle rhumerus
    rhumerus rradius
    rradius rwrist
    rwrist rhand rthumb
    rhand rfingers
  end

#!OML:ASF F:\VICON\USERDATA\INSTALL\rory3\rory3.ASF
:FULLY-SPECIFIED
:DEGREES
447
root 1.89253 18.4195 0.29142 180.334 87.2435 171.617
lowerback -9.41568 -1.12714 0.522162
upperback -3.60737 -1.42173 -0.220624
thorax 1.51757 -0.664019 -0.669104
lowerneck -20.3061 0.711544 3.44396
upperneck 13.6315 0.484475 -2.75069
head 7.53039 0.142195 -1.41084
rclavicle -1.17174e-015 3.86388e-015
rhumerus -38.6148 -0.460288 -77.2046
rradius 81.0057
rwrist -228.171
rhand -29.9318 2.07149
rfingers 7.12502
rthumb -3.25162 -27.8835
lclavicle -1.17174e-015 3.86388e-015
lhumerus -40.1658 -7.50355 76.6349
lradius 79.2579
lwrist 250.754
lhand -28.3249 -44.1929
lfingers 7.12502
lthumb -1.69974 -14.2199
rfemur 0.201194 -4.04167 15.3771
rtibia -1.90833e-014
rfoot -9.00509 1.87948
rtoes -11.3657
lfemur -10.4299 9.78948 -16.852
ltibia 19.0862
lfoot -16.5563 -1.29616
ltoes -22.3461
448
root 1.88597 18.4216 0.293741 179.893 87.2841 171.036
lowerback -9.47575 -1.11709 0.494367
upperback -3.59075 -1.40634 -0.221045
thorax 1.56868 -0.655979 -0.653776
lowerneck -20.2868 0.704075 3.41961
upperneck 13.3909 0.468228 -2.69619
head 7.44665 0.137706 -1.38918
rclavicle 7.33601e-015 -1.01877e-015
rhumerus -38.5564 -0.479212 -77.2257
rradius 80.9045
rwrist -228.112
rhand -29.8764 2.10259
rfingers 7.12502
rthumb -3.19813 -27.8532
lclavicle 7.33601e-015 -1.01877e-015
lhumerus -39.9832 -7.60362 76.6217
lradius 79.1603
lwrist 250.709
lhand -28.4334 -44.3319
lfingers 7.12502
lthumb -1.80452 -14.3598
rfemur 0.0141156 -4.01174 15.3671
rtibia -2.06736e-014
rfoot -8.94916 1.85218
rtoes -11.6069
lfemur -10.5895 9.8913 -16.9108
ltibia 19.063
lfoot -16.4941 -1.30724
ltoes -22.5696
449
root 1.8773 18.4239 0.296263 178.062 87.266 169.101
lowerback -9.4823 -1.1166 0.384226
upperback -3.57062 -1.39635 -0.231127
thorax 1.59577 -0.65057 -0.601665
lowerneck -20.271 0.652907 3.35101
upperneck 13.1705 0.407134 -2.64828
head 7.36884 0.108907 -1.36813
rclavicle 1.19531e-014 7.45443e-016
rhumerus -38.4999 -0.506077 -77.189
rradius 80.7925
rwrist -228.023
rhand -30.0916 2.12726
rfingers 7.12502
rthumb -3.40591 -27.8253
lclavicle 1.19531e-014 7.45443e-016
lhumerus -39.7945 -7.74059 76.646
lradius 79.1042
lwrist 250.627
lhand -28.3693 -44.2622
lfingers 7.12502
lthumb -1.74257 -14.2896
rfemur -0.125156 -4.03675 15.2759
rtibia -1.59028e-015
rfoot -8.87693 1.8608
rtoes -11.7058
lfemur -10.725 10.1493 -17.0333
ltibia 19.0222
lfoot -16.3696 -1.61585
ltoes -22.3299
450
root 1.86786 18.4259 0.298461 178.353 87.2606 169.293
lowerback -9.44712 -1.10319 0.39578
upperback -3.57494 -1.37941 -0.241213
thorax 1.57166 -0.642397 -0.615997
lowerneck -20.2769 0.61789 3.31153
upperneck 13.0214 0.351449 -2.55181
head 7.3185 0.0891191 -1.33556
rclavicle 7.08869e-015 5.96354e-016
rhumerus -38.4917 -0.583235 -77.1901
rradius 80.7261
rwrist -227.948
rhand -30.42 2.28116
rfingers 7.12502
rthumb -3.72308 -27.6661
lclavicle 7.08869e-015 5.96354e-016
lhumerus -39.6376 -7.90592 76.6168
lradius 79.047
lwrist 250.537
lhand -28.2275 -43.9959
lfingers 7.12502
lthumb -1.60561 -14.0222
rfemur -0.265199 -4.05076 15.2849
rtibia 1.59028e-015
rfoot -8.81459 1.8745
rtoes -11.0014
lfemur -10.8664 10.473 -17.0497
ltibia 18.9859
lfoot -16.2648 -1.94627
ltoes -22.303
451
root 1.85824 18.4282 0.301061 177.772 87.2563 168.601
lowerback -9.44971 -1.09266 0.357924
upperback -3.56609 -1.36176 -0.266373
thorax 1.58277 -0.633564 -0.618999
lowerneck -20.2817 0.610617 3.32589
upperneck 12.8556 0.32234 -2.47849
head 7.26357 0.0824509 -1.31611
rclavicle 1.34715e-014 4.05024e-015
rhumerus -38.4371 -0.665735 -77.1924
rradius 80.6703
rwrist -227.849
rhand -30.3585 2.33686
rfingers 7.12502
rthumb -3.66367 -27.6114
lclavicle 1.34715e-014 4.05024e-015
lhumerus -39.4455 -8.02969 76.5632
lradius 79.0165
lwrist 250.424
lhand -28.2806 -44.0188
lfingers 7.12502
lthumb -1.65693 -14.0455
rfemur -0.414603 -4.06324 15.2534
rtibia -4.77083e-015
rfoot -8.78561 1.89377
rtoes -10.6545
lfemur -11.0007 10.5046 -17.1195
ltibia 18.9486
lfoot -16.2262 -1.90956
ltoes -22.428
452
root 1.84802 18.4293 0.304704 176.491 87.2504 167.274
lowerback -9.39136 -1.10042 0.268655
upperback -3.5355 -1.36541 -0.282175
thorax 1.58411 -0.635648 -0.584765
lowerneck -20.3354 0.607201 3.29991
upperneck 12.7474 0.30558 -2.38455
head 7.23604 0.0815654 -1.28235
rclavicle 2.56324e-015 -2.36057e-015
rhumerus -38.3334 -0.659301 -77.1836
rradius 80.5992
rwrist -227.774
rhand -30.1403 2.09959
rfingers 7.12502
rthumb -3.45297 -27.8522
lclavicle 2.56324e-015 -2.36057e-015
lhumerus -39.2679 -8.13867 76.5206
lradius 78.9981
lwrist 250.351
lhand -28.5164 -44.2848
lfingers 7.12502
lthumb -1.88462 -14.3134
rfemur -0.506785 -4.06857 15.2053
rtibia 1.59028e-015
rfoot -8.75144 1.90679
rtoes -10.742
lfemur -11.0745 10.3999 -17.1935
ltibia 18.9217
lfoot -16.1858 -1.78439
ltoes -22.3542
